<svg xmlns="http://www.w3.org/2000/svg" xmlns:xlink="http://www.w3.org/1999/xlink" version="1.1" x="0px" y="0px" viewBox="0 0 100 125" style="enable-background:new 0 0 100 100;" xml:space="preserve"><style type="text/css">
	.st0{fill:#fff;stroke:#fff;stroke-width:2;stroke-linecap:round;stroke-linejoin:round;stroke-miterlimit:10;}
	.st1{stroke:#fff;stroke-width:0.5;stroke-linecap:round;stroke-linejoin:round;stroke-miterlimit:10;}
	.st2{stroke:#fff;stroke-width:0.25;stroke-linecap:round;stroke-linejoin:round;stroke-miterlimit:10;}
	.st3{fill:#fff;stroke:#fff;stroke-width:2;stroke-miterlimit:10;}
</style>
<path d="M15.6,90.9c0.7,0,1.4-0.3,2-0.8L30.9,78c0.7,0.5,1.5,0.8,2.4,0.8c0.9,0,1.9-0.3,2.6-1l40-35.2c0.2-0.2,0.3-0.4,0.3-0.7  c0-0.3-0.1-0.5-0.3-0.7L59.7,24.9c-0.2-0.2-0.5-0.3-0.7-0.3c-0.3,0-0.5,0.1-0.7,0.3L23,64.9c-1.3,1.4-1.3,3.5-0.2,5L10.8,83.2  c-1.1,1.1-1.1,2.9,0,4.1l2.8,2.8C14.1,90.6,14.9,90.9,15.6,90.9z M24.5,66.3l34.5-39.2l14.7,14.7L34.6,76.3  c-0.8,0.7-1.9,0.6-2.7-0.1l-7.3-7.3C23.9,68.2,23.8,67,24.5,66.3z M12.2,84.6l12-13.2l5.2,5.2L16.2,88.7c-0.3,0.3-0.9,0.3-1.2,0  l-2.8-2.8C11.8,85.5,11.8,85,12.2,84.6z"/><path d="M47.6,16.6l1.8,0.1l0.9,1.6c0.2,0.3,0.5,0.5,0.9,0.5c0,0,0.1,0,0.1,0c0.4,0,0.7-0.3,0.8-0.6l0.7-1.7l1.8-0.4  c0.4-0.1,0.7-0.4,0.8-0.7s0-0.8-0.3-1l-1.4-1.2l0.2-1.8c0-0.4-0.1-0.7-0.5-0.9c-0.3-0.2-0.7-0.2-1.1,0l-1.6,1L49,10.6  c-0.3-0.2-0.8-0.1-1,0.2c-0.3,0.2-0.4,0.6-0.3,1l0.5,1.8l-1.2,1.4c-0.3,0.3-0.3,0.7-0.2,1S47.2,16.5,47.6,16.6z M49.9,14.4  c0.2-0.2,0.3-0.6,0.2-0.9l-0.1-0.3l0.3,0.1c0.3,0.1,0.7,0.1,0.9-0.1l0.3-0.2l0,0.4c0,0.3,0.1,0.6,0.4,0.9l0.3,0.2l-0.3,0.1  c-0.3,0.1-0.6,0.3-0.7,0.6L51,15.5l-0.2-0.3c-0.2-0.3-0.5-0.5-0.8-0.5l-0.4,0L49.9,14.4z"/><path d="M85.5,53c0.4,0,0.7-0.3,0.8-0.6l0.7-1.7l1.8-0.4c0.4-0.1,0.7-0.4,0.8-0.7s0-0.8-0.3-1l-1.4-1.2l0.2-1.8  c0-0.4-0.1-0.7-0.5-0.9c-0.3-0.2-0.7-0.2-1.1,0l-1.6,1l-1.7-0.7c-0.4-0.2-0.8-0.1-1,0.2c-0.3,0.2-0.4,0.6-0.3,1l0.5,1.8l-1.2,1.4  c-0.3,0.3-0.3,0.7-0.2,1s0.5,0.6,0.9,0.6l1.8,0.1l0.9,1.6C84.7,52.8,85.1,53,85.5,53C85.4,53,85.5,53,85.5,53z M85.2,49.7l-0.2-0.3  c-0.2-0.3-0.5-0.5-0.8-0.5l-0.4,0l0.2-0.3c0.2-0.2,0.3-0.6,0.2-0.9l-0.1-0.3l0.3,0.1c0.3,0.1,0.7,0.1,0.9-0.1l0.3-0.2l0,0.4  c0,0.3,0.1,0.6,0.4,0.9l0.3,0.2l-0.3,0.1c-0.3,0.1-0.6,0.3-0.7,0.6L85.2,49.7z"/><path d="M82.6,16.6l1.7,0.8l0.2,1.8c0,0.4,0.3,0.7,0.7,0.8c0.1,0,0.2,0.1,0.3,0.1c0.3,0,0.5-0.1,0.7-0.3l1.3-1.3l1.8,0.3  c0.4,0.1,0.8-0.1,1-0.4c0.2-0.3,0.3-0.7,0.1-1.1l-0.8-1.7l0.9-1.6c0.2-0.3,0.2-0.7-0.1-1.1c-0.2-0.3-0.6-0.5-1-0.4L87.6,13l-1.3-1.3  c-0.3-0.3-0.7-0.4-1-0.3c-0.4,0.1-0.6,0.4-0.7,0.8L84.3,14l-1.7,0.8c-0.3,0.2-0.6,0.5-0.6,0.9S82.3,16.4,82.6,16.6z M85.6,15.6  c0.3-0.1,0.5-0.4,0.6-0.7l0.1-0.3l0.2,0.3c0.2,0.2,0.6,0.4,0.9,0.3l0.3-0.1l-0.2,0.3c-0.2,0.3-0.2,0.6,0,0.9l0.2,0.3l-0.3-0.1  c-0.3-0.1-0.7,0-0.9,0.3L86.2,17l0-0.3c0-0.3-0.2-0.6-0.5-0.8l-0.3-0.2L85.6,15.6z"/><ellipse transform="matrix(6.326628e-02 -0.998 0.998 6.326628e-02 43.4903 111.3151)" cx="81" cy="32.5" rx="0.7" ry="0.7"/><path d="M66.4,13.9c0.1,0,0.1,0,0.2,0c0.7,0,1.3-0.2,1.8-0.7c0.6-0.5,0.9-1.2,0.9-1.9c0,0,0,0,0,0c0.1-1.5-1.1-2.9-2.6-3  c-1.5-0.1-2.9,1.1-3,2.6c0,0.7,0.2,1.5,0.7,2C65,13.6,65.7,13.9,66.4,13.9z M66.6,10.3C66.6,10.3,66.7,10.3,66.6,10.3  c0.5,0,0.8,0.4,0.8,0.9c0,0.2-0.1,0.4-0.3,0.5s-0.4,0.2-0.6,0.2c-0.2,0-0.4-0.1-0.5-0.3c-0.1-0.2-0.2-0.4-0.2-0.6  C65.8,10.7,66.2,10.3,66.6,10.3z"/><path d="M78.6,25.1c0.1,0,0.1,0,0.2,0c1.5,0,2.7-1.1,2.8-2.6c0.1-1.5-1.1-2.9-2.6-3c-1.5-0.1-2.9,1.1-3,2.6  C75.9,23.6,77.1,25,78.6,25.1z M78.8,21.5C78.8,21.5,78.8,21.5,78.8,21.5c0.5,0,0.8,0.4,0.8,0.9c0,0.4-0.4,0.8-0.8,0.7  c-0.2,0-0.4-0.1-0.5-0.3C78,22.7,78,22.4,78,22.2C78,21.8,78.4,21.5,78.8,21.5z"/><path d="M67.6,26.6c-0.4,0.4-0.3,1.1,0.1,1.4c0.2,0.2,0.4,0.2,0.6,0.2c0.3,0,0.6-0.1,0.8-0.4c0.2-0.3,5.7-7,5-17.9  c0-0.6-0.5-1-1.1-0.9c-0.6,0-1,0.5-0.9,1.1C72.8,20.2,67.7,26.6,67.6,26.6z"/><path d="M90.6,25.9c-10.8-2.3-17.7,5.2-18,5.5c-0.4,0.4-0.3,1,0.1,1.4c0.2,0.2,0.4,0.3,0.7,0.3c0.3,0,0.5-0.1,0.7-0.3  c0.1-0.1,6.4-7,16.1-4.9c0.5,0.1,1.1-0.2,1.2-0.8C91.5,26.5,91.1,26,90.6,25.9z"/><path d="M61.5,21.7c-0.2,0.5,0.1,1.1,0.7,1.2c0.1,0,0.2,0,0.3,0c0.4,0,0.8-0.3,1-0.7c0.1-0.3,1.9-6.6-2.2-10.7c-0.4-0.4-1-0.4-1.4,0  c-0.4,0.4-0.4,1,0,1.4C63,16.3,61.5,21.6,61.5,21.7z"/><path d="M76.8,37.4c0.1,0.5,0.7,0.9,1.2,0.7c0.1,0,6.9-1.6,9.4,2.6c0.2,0.3,0.5,0.5,0.9,0.5c0.2,0,0.4,0,0.5-0.2  c0.5-0.3,0.6-0.9,0.3-1.4c-3.3-5.4-11.3-3.6-11.6-3.5C77,36.3,76.7,36.8,76.8,37.4z"/></svg>