<svg width="331" height="240" viewBox="0 0 331 240" xmlns="http://www.w3.org/2000/svg"><style>#cursor{animation:move 5s infinite}#tab_will_move{animation:moveCard 5s infinite}#tab_will_close{animation:collapse 5s infinite}#card_will_open{animation:fadeIn 5s infinite}#threeTabs{animation:moveUp 5s infinite}#threeTabs_top{animation:moveLeft 5s infinite}@keyframes collapse{0%,45%{transform:scale(1,1);opacity:1}50%,to{transform:scale(.6,1);opacity:0}}@keyframes move{0%,10%,70%,to{transform:translate(0,80px)}20%{transform:translate(0,-5px)}25%{transform:translate(0,-2px)}45%{transform:translate(-80px,85px)}}@keyframes moveCard{0%,24%{transform:translate(0,0)}25%{transform:translate(0,-2px)}45%{transform:translate(-80px,85px);opacity:1}60%,to{transform:translate(-80px,85px);opacity:0}}@keyframes moveUp{0%,45%{transform:translate(261px,79px)}60%,to{transform:translate(261px,57px)}}@keyframes moveLeft{0%,45%{transform:translate(0,0)}60%,to{transform:translate(-43px,0)}}@keyframes fadeIn{0%,45%{opacity:0}50%,to{opacity:1}}</style><g id="browser" fill="none" fill-rule="evenodd" transform="translate(0 12)"><rect fill="#D8D8D8" y=".35" width="330" height="226.65" rx="4"/><rect fill="#FFF" x="6.53" y="6.16" width="316.95" height="214.3" rx="4"/><rect fill="#EFEFEF" x="18.13" y="46.12" width="40.46" height="8.22" rx="4.11"/><rect fill="#EFEFEF" x="18.13" y="110.77" width="40.46" height="8.22" rx="4.11"/><rect fill="#E1E1E1" x="17.41" y="64.28" width="49.84" height="33.48" rx="9"/><rect fill="#E1E1E1" x="72.53" y="64.28" width="49.84" height="33.48" rx="9"/><rect fill="#E1E1E1" x="17.41" y="128.93" width="49.84" height="33.48" rx="9"/><rect fill="#E1E1E1" x="72.53" y="128.93" width="49.84" height="33.48" rx="9"/><rect fill="#E1E1E1" x="127.65" y="128.93" width="49.84" height="33.48" rx="9"/><path d="M323.47 30.13H6.53V10.16c0-2.2 1.78-4 4-4h308.94c2.2 0 4 1.8 4 4v19.97z" id="Combined-Shape" fill="#EFEFEF"/><rect fill="#FFF" x="132" y="10.52" width="66.73" height="13.8" rx="6.9"/><rect fill="#E8ACBC" x="13.05" y="10.52" width="13.78" height="13.8" rx="6.89"/></g><path d="M13.8.2h21.43c2.1 0 4.7 1.2 5.8 2.65l6.18 8.3c1.1 1.46-.9 2.65-4.48 2.65H6.22c-3.57 0-5.57-1.2-4.47-2.65L8 2.85C9.1 1.4 11.7.2 13.8.2z" id="tab_will_close" fill="#D8D8D8" fill-rule="evenodd"/><g id="threeTabs_top" fill="#D8D8D8" fill-rule="evenodd"><path d="M57.32.2h21.43c2.1 0 4.7 1.2 5.78 2.65l6.2 8.3c1.1 1.46-.92 2.65-4.5 2.65H49.75c-3.58 0-5.58-1.2-4.48-2.65l6.24-8.3C52.63 1.4 55.23.2 57.33.2z"/><path d="M100.83.2h21.43c2.1 0 4.7 1.2 5.8 2.65l6.18 8.3c1.1 1.46-.9 2.65-4.5 2.65H93.27c-3.57 0-5.58-1.2-4.47-2.65l6.23-8.3c1.1-1.46 3.7-2.65 5.8-2.65z"/><path d="M144.35.2h21.43c2.1 0 4.7 1.2 5.8 2.65l6.18 8.3c1.1 1.46-.92 2.65-4.5 2.65H136.8c-3.58 0-5.58-1.2-4.48-2.65l6.25-8.3c1.1-1.46 3.7-2.65 5.8-2.65z"/></g><rect id="card_will_open" fill="#E1E1E1" fill-rule="evenodd" x="182.04" y="140.2" width="49.84" height="33.48" rx="9"/><rect id="tab_will_move" fill="#E1E1E1" fill-rule="evenodd" x="261.82" y="58.12" width="49.84" height="16.71" rx="5"/><g id="threeTabs" fill="#E1E1E1" fill-rule="evenodd" transform="translate(261 79)"><rect x=".82" y=".91" width="49.84" height="16.71" rx="5"/><rect x=".82" y="22.7" width="49.84" height="16.71" rx="5"/><rect x=".82" y="44.5" width="49.84" height="16.71" rx="5"/></g><path d="M304.7 83.1l4.77-2.75c.37-.22.6-.63.56-1.06-.03-.44-.3-.8-.7-.97l-21.3-8.5c-.42-.18-.9-.08-1.22.24-.3.32-.4.8-.24 1.2l8.5 21.35c.16.4.53.67.96.7.43.04.84-.18 1.06-.56l2.76-4.78 6.7 6.7c.2.22.5.34.8.34.28 0 .57-.12.78-.33l3.27-3.3c.43-.43.43-1.14 0-1.58l-6.7-6.7z" id="cursor" fill="#898686" fill-rule="evenodd"/></svg>