<svg width="331" height="240" viewBox="0 0 331 240" xmlns="http://www.w3.org/2000/svg" xmlns:xlink="http://www.w3.org/1999/xlink"><style>#save_session{animation:blink 5s infinite}#cursor{animation:move 5s infinite}#tabs_will_close_top{animation:collapse 5s infinite}#tabs_will_close{animation:collapseUp 5s infinite}#lists_will_move{animation:moveDown 5s infinite}#list_will_fade_in{animation:fadeIn 5s infinite}@keyframes collapse{0%,30%{transform:scale(1,1);opacity:1}40%,to{transform:scale(.6,1);opacity:0}}@keyframes collapseUp{0%,30%{opacity:1}40%,to{opacity:0}}@keyframes blink{0%,23%,32%{opacity:1}26%{opacity:.5}}@keyframes move{0%,10%{transform:translate(0,60px)}20%,30%{transform:translate(0,-5px)}25%{transform:translate(0,-2px)}}@keyframes moveDown{0%,30%{transform:translate(17px,58px)}40%,to{transform:translate(17px,118px)}}@keyframes fadeIn{0%,30%{opacity:0}40%,to{opacity:1}}</style><defs><rect id="path-1" y=".1" width="69.6" height="23.4" rx="5"/><mask id="mask-2" x="0" y="0" width="69.6" height="23.4" fill="#fff"><use xlink:href="#path-1"/></mask></defs><g id="browser" fill="none" fill-rule="evenodd" transform="translate(0 12)"><rect fill="#D8D8D8" y=".4" width="331" height="227.6" rx="4"/><rect fill="#FFF" x="6.5" y="6.2" width="317.9" height="215.2" rx="4"/><path d="M324.4 30.3H6.6v-20c0-2.3 1.8-4 4-4h309.8c2.3 0 4 1.7 4 4v20z" id="Combined-Shape" fill="#EFEFEF"/><rect fill="#FFF" x="132.4" y="10.6" width="66.9" height="13.9" rx="6.9"/><rect fill="#E8ACBC" x="13.1" y="10.6" width="13.8" height="13.9" rx="6.9"/></g><g id="tabs_will_close_top" fill="#D8D8D8" fill-rule="evenodd"><path d="M13.8.2h21.5C37.3.2 40 1.4 41 3l6.3 8.2c1 1.5-1 2.7-4.5 2.7H6.3C2.6 14 .7 12.6 1.8 11L8 2.8C9 1.4 11.7.2 13.8.2z"/><path d="M57.5.2H79c2 0 4.7 1.2 5.8 2.7L91 11c1 1.5-1 2.7-4.5 2.7H50c-3.7 0-5.7-1.3-4.6-2.8L51.7 3c1-1.6 3.7-2.8 5.8-2.8z"/><path d="M101 .2h21.6c2 0 4.7 1.2 5.8 2.7l6.2 8.2c1 1.5-1 2.7-4.5 2.7H93.6C90 14 88 12.6 89 11l6.3-8.4c1-1.4 3.7-2.6 5.8-2.6z"/><path d="M144.8.2h21.5c2 0 4.7 1.2 5.8 2.7l6.3 8.2c1 1.5-1 2.7-4.5 2.7h-36.6c-3.6 0-5.6-1.3-4.5-2.8l6.3-8.4c1-1.4 3.7-2.6 5.8-2.6z"/></g><g id="list_will_fade_in" fill="none" fill-rule="evenodd" transform="translate(17 58)"><rect fill="#EFEFEF" x="1.2" y=".3" width="40.6" height="8.3" rx="4.1"/><rect fill="#E1E1E1" x=".5" y="18.5" width="50" height="33.6" rx="9"/><rect fill="#E1E1E1" x="55.8" y="18.5" width="50" height="33.6" rx="9"/><rect fill="#E1E1E1" x="111" y="18.5" width="50" height="33.6" rx="9"/><rect fill="#E1E1E1" x="166" y="18.5" width="50" height="33.6" rx="9"/></g><g id="lists_will_move" fill="none" fill-rule="evenodd" transform="translate(17 58)"><rect fill="#EFEFEF" x="1.2" y=".4" width="40.6" height="8.3" rx="4.1"/><rect fill="#EFEFEF" x="1.2" y="65.3" width="40.6" height="8.3" rx="4.1"/><rect fill="#E1E1E1" x=".5" y="18.6" width="50" height="33.6" rx="9"/><rect fill="#E1E1E1" x="55.8" y="18.6" width="50" height="33.6" rx="9"/><rect fill="#E1E1E1" x=".5" y="83.5" width="50" height="33.6" rx="9"/><rect fill="#E1E1E1" x="55.8" y="83.5" width="50" height="33.6" rx="9"/><rect fill="#E1E1E1" x="111" y="83.5" width="50" height="33.6" rx="9"/></g><g id="tabs_will_close" fill="#E1E1E1" fill-rule="evenodd" transform="translate(262 88)"><rect x=".6" y=".4" width="50" height="16.8" rx="5"/><rect x=".6" y="22.2" width="50" height="16.8" rx="5"/><rect x=".6" y="44.1" width="50" height="16.8" rx="5"/><rect x=".6" y="66" width="50" height="16.8" rx="5"/></g><g id="save_session" fill="none" fill-rule="evenodd" transform="translate(243 55)"><use stroke="#979797" mask="url(#mask-2)" stroke-width="2" id="path-1" xlink:href="#path-1"/><path d="M7.2 14c.3 0 .5 0 .6-.2 0 0 .2 0 .2-.3 0 0 0-.2-.3-.3L7 13l-.6-.3c-.2 0-.3-.3-.5-.4-.2 0-.3-.3-.4-.5v-.6c0-.5 0-1 .5-1.2.4-.3 1-.4 1.6-.4h1l.6.3-.3 1h-.6c-.2-.2-.4-.2-.7-.2-.5 0-.7 0-.7.4v.2h.2s0 .2.2.2l.4.2c.3 0 .6.2.8.3l.5.5.4.5v.6c0 .5-.2 1-.5 1-.5.4-1 .5-1.8.5H6c-.3 0-.5 0-.6-.2l.2-1.2.8.2h.8zm5.4 0h.7v-1.2H12l-.2.2v.8l.8.2zm-.2-4.4c.5 0 .8 0 1 .2.4 0 .7.2.8.4l.4.7v3.8l-.8.2h-2.3c-.2 0-.5 0-.7-.3-.2 0-.3-.3-.4-.5l-.2-.8c0-.3 0-.6.2-.8 0-.2.3-.4.5-.5l.6-.2h1.6c0-.4 0-.6-.2-.7 0 0-.3-.2-.7-.2h-.8l-.6.3-.3-1.2h.7l.5-.2h.4zm5 5.4l-1-2.3-1-3h1.7l.3 1 .3.8.3 1v.7l.4-.8.3-1 .3-.8.2-1h1.6l-1 3-1 2.4h-1.3zm4-2.6v-1.2l.7-1c.3 0 .6-.3 1-.4l1-.2c.6 0 1.2.2 1.6.7.5.4.7 1 .7 2v.6H23c0 .2 0 .4.3.6.2.2.6.3 1 .3l.8-.2c.4 0 .6 0 .8-.2l.2 1.2h-.4c0 .2-.2.2-.4.2H23l-1-.6-.5-1-.2-1zm3.4-.6v-.3c0-.2 0-.3-.2-.3l-.3-.3-.4-.2h-.6c0 .2-.2.2-.3.3v.8h1.8zm6.5 2h.6v-.6c-.3 0-.5-.2-.8-.3l-.6-.3c-.2 0-.4-.3-.5-.4l-.2-.5-.2-.6c0-.5.2-1 .6-1.2.4-.3 1-.4 1.5-.4h1l.6.3-.2 1h-.5c-.2-.2-.4-.2-.7-.2-.4 0-.7 0-.7.4v.2h.3s0 .2.2.2l.4.2.7.3.5.5c0 .2.2.3.3.5v.6c0 .5 0 1-.5 1-.4.4-1 .5-1.7.5h-1c-.5 0-.7 0-.8-.2l.3-1.2.7.2h.8zm3-1.4c0-.5.2-1 .3-1.2l.6-1 .8-.4 1-.2c.7 0 1.3.2 1.7.7.4.4.7 1 .7 2v.6H36c0 .2 0 .4.4.6.2.2.6.3 1 .3l.8-.2c.3 0 .5 0 .6-.2l.3 1.2h-.3c0 .2-.3.2-.4.2H36l-1-.6c0-.3-.3-.6-.4-1l-.2-1zm3.6-.6v-.3l-.3-.3-.3-.3-.4-.2h-.5c0 .2-.2.2-.3.3 0 .2 0 .3-.2.5v.3h2zm4 2h.6s.2 0 .2-.3c0 0 0-.2-.3-.3L42 13l-.8-.3-.4-.4c-.2 0-.3-.3-.3-.5l-.2-.6c0-.5.2-1 .6-1.2.3-.3.8-.4 1.4-.4h1l.6.3-.2 1h-.6c-.2-.2-.4-.2-.7-.2-.5 0-.7 0-.7.4v.2h.2s0 .2.2.2l.4.2c.3 0 .6.2.8.3l.5.5c0 .2 0 .3.2.5v.6c0 .5 0 1-.5 1-.4.4-1 .5-1.7.5h-1.2c-.3 0-.5 0-.6-.2l.3-1.2.7.2h.8zm5 0h.5v-.6l-.8-.3-.6-.3-.4-.4-.3-.5v-.6c0-.5 0-1 .4-1.2.4-.3 1-.4 1.5-.4h1c.3 0 .5.2.7.3l-.4 1H48c-.2-.2-.4-.2-.6-.2-.5 0-.7 0-.7.4v.2l.4.2c.2 0 .3 0 .5.2.3 0 .5.2.8.3l.5.5.2.5v.6c0 .5 0 1-.5 1-.4.4-1 .5-1.6.5h-1.3c-.3 0-.5 0-.7-.2l.3-1.2.8.2h1zm4.7 1.2h-1.5V9.7h1.5V15zm0-6.8V9H50c-.2-.3-.2-.5-.2-.8 0-.3 0-.5.3-.6.2-.2.4-.3.7-.3.2 0 .4 0 .6.3.2 0 .2.3.2.6zm6.3 4.2c0 .4 0 .8-.2 1 0 .4-.3.7-.5 1l-.8.5h-2l-1-.6-.5-1v-2.2l.6-.8c.2-.3.5-.5.8-.6l1-.2c.4 0 .8 0 1 .2.4 0 .7.3 1 .6l.4.8c.2.4.2.7.2 1.2zm-1.5 0c0-.5 0-1-.3-1-.2-.4-.4-.5-.8-.5-.3 0-.6 0-.8.3l-.2 1c0 .5 0 1 .3 1.2 0 .2.4.4.7.4.4 0 .6-.3.8-.5.2-.3.3-.7.3-1zm2.7-2.5c.2-.2.5-.2 1-.3h2.2l.8.6.4.8v4h-1.4v-2.8c0-.5 0-.8-.2-1 0-.2-.3-.3-.7-.3h-.5v4h-1.5v-5z" id="save-session" fill="#6C6C6C"/></g><path d="M305.6 83.5l4.8-2.8c.4-.2.6-.7.6-1 0-.5-.3-1-.7-1L289 70c-.5 0-1 0-1.3.4-.3.3-.4.8-.3 1.2L296 93c0 .4.5.7 1 .7.4 0 .8-.2 1-.6l2.7-4.6 6.8 6.7c.2.3.5.4.8.4.3 0 .5 0 .8-.3l3.3-3.2c.5-.4.5-1 0-1.6l-6.7-6.7z" id="cursor" fill="#898686" fill-rule="evenodd"/></svg>