<svg width="331" height="240" viewBox="0 0 331 240" xmlns="http://www.w3.org/2000/svg"><style>#text_will_slideIn{animation:slideIn 5s infinite}#search_results_fadeIn{animation:fadeIn 5s infinite}@keyframes slideIn{0%,20%{opacity:0;width:5px}40%{opacity:1;width:40px}}@keyframes fadeIn{0%,35%{opacity:0}40%{opacity:1}}</style><g id="browser" fill="none" fill-rule="evenodd"><rect fill="#D8D8D8" y="12.4" width="331" height="227.6" rx="4"/><rect fill="#FFF" x="6.55" y="18.24" width="317.91" height="215.2" rx="4"/><rect fill="#EFEFEF" x="18.19" y="58.36" width="40.58" height="8.26" rx="4.13"/><rect fill="#EFEFEF" x="18.19" y="123.28" width="40.58" height="8.26" rx="4.13"/><rect fill="#E1E1E1" x="17.46" y="76.6" width="50" height="33.62" rx="9"/><path d="M13.84.2h21.5c2.1 0 4.7 1.2 5.8 2.66l6.2 8.33c1.1 1.47-.9 2.66-4.5 2.66H6.25c-3.58 0-5.6-1.2-4.48-2.67l6.26-8.34C9.12 1.4 11.72.2 13.84.2z" id="Rectangle-3" fill="#D8D8D8"/><path d="M57.5.2H79c2.1 0 4.7 1.2 5.8 2.66L91 11.2c1.1 1.47-.92 2.66-4.5 2.66H49.9c-3.6 0-5.6-1.2-4.5-2.67l6.27-8.34C52.77 1.4 55.37.2 57.5.2z" id="Rectangle-3" fill="#D8D8D8"/><path d="M101.14.2h21.5c2.1 0 4.7 1.2 5.8 2.66l6.2 8.33c1.1 1.47-.9 2.66-4.5 2.66h-36.6c-3.58 0-5.6-1.2-4.48-2.67l6.26-8.34C96.42 1.4 99.02.2 101.14.2z" id="Rectangle-3" fill="#D8D8D8"/><path d="M144.8.2h21.48c2.1 0 4.7 1.2 5.8 2.66l6.22 8.33c1.1 1.47-.92 2.66-4.5 2.66h-36.6c-3.6 0-5.6-1.2-4.5-2.67l6.27-8.34c1.1-1.47 3.7-2.66 5.82-2.66z" id="Rectangle-3" fill="#D8D8D8"/><rect fill="#E1E1E1" x="72.75" y="76.6" width="50" height="33.62" rx="9"/><rect fill="#E1E1E1" x="17.46" y="141.52" width="50" height="33.62" rx="9"/><rect fill="#E1E1E1" x="72.75" y="141.52" width="50" height="33.62" rx="9"/><rect fill="#E1E1E1" x="128.04" y="141.52" width="50" height="33.62" rx="9"/><rect fill="#FFF" x="182.6" y="140.79" width="50" height="33.62" rx="9"/><rect fill="#E1E1E1" x="262.62" y="58.36" width="50" height="16.78" rx="5"/><rect fill="#E1E1E1" x="262.62" y="80.24" width="50" height="16.78" rx="5"/><rect fill="#E1E1E1" x="262.62" y="102.13" width="50" height="16.78" rx="5"/><rect fill="#E1E1E1" x="262.62" y="124.01" width="50" height="16.78" rx="5"/></g><g id="search_results_fadeIn" fill="none" fill-rule="evenodd" transform="translate(6 18)"><rect fill-opacity=".34" fill="#E33F6B" x=".55" y=".24" width="317.91" height="215.2" rx="4"/><rect fill="#FCF9F9" x="66.75" y="58.6" width="50" height="33.62" rx="9"/><rect fill="#FCF9F9" x="122.04" y="123.52" width="50" height="33.62" rx="9"/><rect fill="#FCF9F9" x="256.62" y="62.24" width="50" height="16.78" rx="5"/></g><g id="header" fill="none" fill-rule="evenodd" transform="translate(6 18)"><path d="M318.45 24.3H.55V4.25c0-2.2 1.8-4 4-4h309.9c2.22 0 4 1.78 4 4V24.3z" id="Combined-Shape" fill="#EFEFEF"/><rect fill="#FFF" x="126.4" y="4.61" width="66.93" height="13.86" rx="6.93"/><rect fill="#E8ACBC" x="7.09" y="4.61" width="13.82" height="13.86" rx="6.91"/></g><rect id="text_will_slideIn" fill="#898686" fill-rule="evenodd" x="136.4" y="26.61" width="37.93" height="6.86" rx="3.43"/><path id="cursor" d="M202.26 41.43l4.8-2.77c.37-.22.6-.63.56-1.06-.03-.44-.3-.8-.7-.97l-21.37-8.55c-.42-.17-.9-.07-1.22.25-.32.32-.42.8-.25 1.22l8.52 21.42c.16.4.54.68.97.7.43.05.84-.17 1.06-.55l2.76-4.8 6.7 6.73c.22.2.5.33.8.33.3 0 .6-.12.8-.33l3.28-3.28c.44-.45.44-1.16 0-1.6l-6.72-6.74z" fill="#898686" fill-rule="evenodd"/></svg>