<svg xmlns="http://www.w3.org/2000/svg" xmlns:xlink="http://www.w3.org/1999/xlink" version="1.1" x="0px" y="0px" viewBox="0 0 100 125" enable-background="new 0 0 100 100" xml:space="preserve"><path fill="#000000" d="M64.077,38.338c-0.181-0.992-0.435-1.981-0.812-2.954c-2.538-6.549-9.083-11.764-17.96-14.309  C29.934,16.696,12.14,21.837,5.636,32.55c-2.563,4.314-3.13,9.006-1.638,13.565c1.687,5.154,5.822,9.563,11.745,12.603  c-0.667,0.855-1.4,1.649-2.253,2.406c-0.013,0.011-0.021,0.024-0.034,0.036c-0.054,0.051-0.101,0.106-0.149,0.162  c-0.039,0.045-0.08,0.089-0.114,0.137c-0.039,0.053-0.069,0.11-0.102,0.168c-0.032,0.056-0.066,0.109-0.093,0.167  c-0.027,0.059-0.045,0.121-0.066,0.182c-0.021,0.061-0.043,0.119-0.058,0.181c-0.015,0.062-0.021,0.127-0.03,0.191  s-0.02,0.128-0.022,0.193c-0.002,0.059,0.003,0.117,0.006,0.177c0.004,0.074,0.007,0.148,0.019,0.222  c0.002,0.017,0.001,0.032,0.004,0.048c0.01,0.052,0.028,0.098,0.042,0.147c0.014,0.055,0.026,0.108,0.045,0.162  c0.029,0.082,0.067,0.158,0.106,0.234c0.017,0.033,0.03,0.068,0.049,0.101c0.064,0.109,0.138,0.212,0.221,0.307  c0.003,0.003,0.004,0.007,0.007,0.01c0.013,0.015,0.03,0.025,0.043,0.04c0.074,0.078,0.153,0.15,0.238,0.215  c0.039,0.03,0.08,0.057,0.12,0.083c0.068,0.045,0.138,0.085,0.211,0.121c0.045,0.022,0.089,0.044,0.135,0.062  c0.081,0.033,0.164,0.058,0.249,0.08c0.039,0.01,0.076,0.023,0.115,0.03c0.125,0.024,0.251,0.04,0.381,0.04c0,0,0.001,0,0.001,0  s0.001,0,0.001,0c0.121,0,0.242-0.012,0.362-0.034c0.001,0,0.003,0,0.004,0c2.95-0.551,5.613-1.612,7.966-3.108  c3.574,0.938,7.221,1.408,10.803,1.408c0.862,0,1.718-0.033,2.57-0.085c1.985,10.778,14.862,18.796,30.684,18.796  c0.262,0,0.525-0.002,0.789-0.007c3.018-0.08,6.205-0.581,9.479-1.451c2.278,1.446,4.915,2.529,7.898,3.182  c0.012,0.003,0.024,0.002,0.036,0.004c0.129,0.025,0.259,0.042,0.39,0.042c0.001,0,0.001,0,0.001,0c0.001,0,0.002,0,0.002,0  c0.132,0,0.262-0.017,0.388-0.042c0.039-0.008,0.076-0.02,0.114-0.029c0.089-0.023,0.176-0.052,0.261-0.087  c0.043-0.018,0.084-0.036,0.126-0.058c0.087-0.043,0.169-0.093,0.248-0.148c0.029-0.021,0.061-0.037,0.089-0.06  c0.104-0.081,0.2-0.173,0.287-0.274c0.007-0.008,0.016-0.014,0.022-0.021c0.021-0.024,0.033-0.052,0.052-0.077  c0.05-0.065,0.098-0.134,0.14-0.206c0.025-0.045,0.048-0.09,0.07-0.136c0.029-0.063,0.057-0.128,0.08-0.195  c0.02-0.054,0.037-0.107,0.051-0.162c0.007-0.026,0.019-0.051,0.024-0.077c0.008-0.034,0.006-0.068,0.012-0.103  c0.012-0.072,0.021-0.144,0.024-0.217c0.004-0.062,0.004-0.123,0.001-0.185c-0.002-0.066-0.008-0.132-0.017-0.198  c-0.009-0.062-0.021-0.124-0.035-0.185c-0.016-0.065-0.033-0.128-0.056-0.191c-0.02-0.058-0.042-0.113-0.066-0.169  c-0.028-0.062-0.06-0.123-0.095-0.183c-0.03-0.053-0.063-0.103-0.099-0.152c-0.038-0.055-0.079-0.106-0.124-0.158  c-0.045-0.051-0.092-0.098-0.141-0.144c-0.028-0.025-0.05-0.056-0.079-0.08c-0.78-0.649-1.51-1.46-2.234-2.44  c6.54-3.343,10.953-8.391,12.234-14.116c1.172-5.24-0.38-10.583-4.37-15.044C86.532,41.321,75.453,37.539,64.077,38.338z   M23.366,57.412c-0.035-0.01-0.069-0.011-0.104-0.019c-0.066-0.016-0.132-0.027-0.199-0.036c-0.065-0.008-0.129-0.013-0.193-0.015  s-0.128,0-0.193,0.005c-0.065,0.004-0.129,0.011-0.192,0.021c-0.064,0.011-0.126,0.025-0.189,0.042  c-0.063,0.018-0.124,0.037-0.185,0.06c-0.06,0.022-0.118,0.048-0.176,0.077c-0.062,0.03-0.122,0.064-0.181,0.102  c-0.029,0.018-0.061,0.029-0.089,0.05c-0.312,0.22-0.648,0.407-0.976,0.605c0.003-0.018,0.002-0.036,0.005-0.055  c0.011-0.064,0.015-0.13,0.02-0.195c0.004-0.065,0.01-0.13,0.008-0.195c-0.002-0.062-0.01-0.123-0.018-0.185  c-0.008-0.065-0.015-0.131-0.03-0.196c-0.014-0.061-0.034-0.119-0.053-0.178c-0.02-0.062-0.039-0.124-0.065-0.184  c-0.025-0.059-0.056-0.112-0.087-0.168c-0.032-0.058-0.062-0.114-0.099-0.168c-0.035-0.051-0.075-0.098-0.115-0.145  c-0.044-0.054-0.089-0.106-0.139-0.155c-0.042-0.04-0.087-0.076-0.133-0.113c-0.059-0.047-0.117-0.094-0.182-0.135  c-0.017-0.011-0.03-0.025-0.047-0.035c-0.037-0.022-0.077-0.034-0.115-0.054c-0.044-0.023-0.083-0.053-0.13-0.072  c-5.939-2.526-10.208-6.609-11.71-11.2c-1.123-3.432-0.682-6.986,1.265-10.263c5.623-9.261,21.39-13.605,35.142-9.688  c7.547,2.163,13.278,6.614,15.33,11.907c1.399,3.611,1.015,7.345-1.127,10.821c-3.567,5.981-11.316,9.922-20.044,10.943  c-0.063-0.005-0.125-0.016-0.188-0.015c-0.17,0.009-0.332,0.044-0.487,0.092C33.009,59.135,28.073,58.761,23.366,57.412z   M89.729,50.895c3.151,3.523,4.344,7.502,3.448,11.505c-1.134,5.065-5.53,9.559-12.064,12.328c-0.043,0.019-0.079,0.045-0.12,0.066  c-0.043,0.021-0.088,0.035-0.13,0.061c-0.019,0.011-0.033,0.026-0.051,0.038c-0.059,0.038-0.112,0.08-0.166,0.124  c-0.05,0.04-0.101,0.079-0.146,0.124c-0.047,0.046-0.088,0.096-0.13,0.146s-0.085,0.099-0.121,0.152  c-0.036,0.053-0.065,0.108-0.097,0.164s-0.063,0.111-0.089,0.171c-0.026,0.06-0.045,0.121-0.064,0.183  c-0.02,0.06-0.04,0.118-0.054,0.179c-0.015,0.064-0.021,0.131-0.029,0.197c-0.008,0.061-0.016,0.121-0.018,0.184  c-0.002,0.064,0.004,0.13,0.008,0.195c0.005,0.065,0.009,0.13,0.021,0.195c0.003,0.019,0.001,0.037,0.005,0.056  c-0.329-0.198-0.667-0.39-0.976-0.606c-0.025-0.018-0.054-0.028-0.08-0.045c-0.063-0.041-0.129-0.078-0.197-0.111  c-0.053-0.025-0.105-0.049-0.159-0.069c-0.066-0.025-0.132-0.047-0.2-0.065c-0.059-0.015-0.116-0.028-0.175-0.038  c-0.067-0.012-0.135-0.02-0.204-0.024c-0.062-0.004-0.124-0.006-0.186-0.004c-0.065,0.002-0.129,0.007-0.194,0.015  c-0.069,0.009-0.138,0.022-0.207,0.038c-0.032,0.008-0.065,0.008-0.098,0.018c-3.262,0.932-6.412,1.444-9.345,1.522  c-0.233,0.004-0.465,0.006-0.696,0.006c-13.486,0-24.846-6.6-26.691-15.221c9.246-1.455,17.312-5.954,21.307-12.652  c1.444-2.344,2.258-4.852,2.46-7.388C74.368,41.633,84.425,44.965,89.729,50.895z"/></svg>