<svg xmlns="http://www.w3.org/2000/svg" xmlns:xlink="http://www.w3.org/1999/xlink" version="1.1" x="0px" y="0px" viewBox="0 0 64 80" enable-background="new 0 0 64 64" xml:space="preserve">
    <g>
        <path d="M53.233,58.543c-0.721-1.868-2.388-3.485-4.365-4.821c-0.765-0.517-1.233-1.37-1.233-2.293l0-10.794   
        c0-0.739,0.492-1.368,1.196-1.591c1.991-0.63,4.019-2.848,4.337-7.033c0.186-2.449-0.356-4.417-1.494-5.823   
        c-0.119-10.359-6.86-20.751-19.648-20.751c-7.41,0-12.025,3.71-14.591,6.822c-3.092,3.75-4.905,8.778-5.063,13.89   
        c-1.161,1.408-1.715,3.389-1.526,5.862c0.333,4.403,3.03,6.631,5.127,7.122c0.516,0.121,0.86,0.612,0.86,1.142l0,10.875   
        c0,0.941-0.486,1.811-1.277,2.321c-2.145,1.383-3.982,3.086-4.749,5.073c-0.633,1.638-0.844,3.049-0.902,4.052   
        C9.725,63.458,9.718,64,9.718,64h0.201c0.008,0.084,0.016,0.137,0.018,0.149L10.925,64h14.392   
        c-2.106-2.306-3.614-6.288-3.489-10.117c0.027-0.834,0.587-1.558,1.379-1.82c0.865-0.286,1.594-0.484,2.096-0.587v0.537   
        c0,0.553,0.447,1,1,1s1-0.447,1-1l0-2.042c0-0.433-0.109-1.691-0.25-2.1c-0.165-0.48,0.294-0.925,0.773-0.778   
        c1.345,0.415,2.762,0.639,4.224,0.639c1.437,0,2.83-0.221,4.153-0.63c0.472-0.146,0.926,0.285,0.782,0.757   
        c-0.161,0.529-0.255,1.07-0.255,1.622l-0.001,2.532c0,0.552,0.447,1,1,1c0.552,0,1-0.447,1-1l0-0.538   
        c0.436,0.089,1.042,0.25,1.762,0.479c0.799,0.254,1.369,0.973,1.404,1.81c0.16,3.865-1.358,7.906-3.486,10.236h14.703l0.989,0.149   
        C54.116,64.051,54.451,61.698,53.233,58.543z M32.026,7.437c10.297,0,16.228,7.558,17.423,15.876   
        c0.08,0.558-0.439,0.989-0.98,0.831c-0.077-0.023-0.155-0.044-0.234-0.064c-0.28-0.072-0.501-0.283-0.562-0.566   
        c-1.641-7.609-6.039-14.288-15.654-14.288c-9.416,0-13.913,6.671-15.617,14.275c-0.063,0.281-0.285,0.491-0.565,0.561   
        c-0.074,0.018-0.147,0.038-0.219,0.058c-0.547,0.156-1.069-0.286-0.975-0.847C16.004,15.067,21.998,7.437,32.026,7.437z    
        M21.596,40.563c-0.178-0.288,0.177-0.606,0.454-0.411c2.231,1.56,5.417,2.737,9.959,2.737c0.553,0,1-0.447,1-1s-0.447-1-1-1   
        c-9.791,0-12.313-5.873-12.899-7.954c-0.086-0.306-0.128-0.617-0.123-0.935c0,0-0.033-4.082-0.171-6.037   
        c-0.042-0.589,0.338-1.116,0.907-1.274c0.57-0.158,1.182-0.346,1.82-0.567c0.23-0.08,0.468,0.069,0.501,0.311   
        c0.055,0.401,0.267,0.897,0.926,0.897l5.545,0.025c1.199,0.006,2.479,0.576,2.474,2.158l-0.017,4.311h-0.797c-0.553,0-1,0.447-1,1   
        s0.447,1,1,1h1.789h0.004h1.854c0.553,0,1-0.447,1-1s-0.447-1-1-1h-0.851l0.017-4.304c0.009-2.438-1.827-4.151-4.464-4.165   
        l-3.987-0.018c-0.23-0.001-0.305-0.312-0.098-0.413c2.601-1.266,5.208-3.125,6.84-5.835c0.369-0.613,1.217-0.675,1.656-0.11   
        c2.199,2.835,5.021,4.702,7.628,5.928c0.215,0.101,0.139,0.423-0.099,0.423l-4.03,0c-0.553,0-1,0.447-1,1s0.447,1,1,1h5.607   
        c0.666,0,0.867-0.574,0.906-1.004c0.02-0.219,0.244-0.354,0.452-0.283c0.077,0.026,0.176,0.063,0.287,0.105   
        c0.827,0.318,1.378,1.112,1.377,1.999l-0.008,7.986c0,7.288-6.889,11.599-13.006,11.599C28.833,45.731,24.072,44.561,21.596,40.563   z"/>
        <ellipse transform="matrix(0.0043 -1 1 0.0043 -4.0742 52.918)" cx="24.535" cy="28.505" rx="1.78" ry="1.71"/>
        <ellipse transform="matrix(0.0043 -1 1 0.0043 10.7318 67.9074)" cx="39.465" cy="28.565" rx="1.78" ry="1.71"/>
        <path d="M36.364,36.072h-8.731c-0.695,0-1.112,0.846-0.674,1.408c1.101,1.413,2.939,2.343,5.04,2.343   
        c2.101,0,3.939-0.93,5.04-2.343C37.476,36.917,37.06,36.072,36.364,36.072z"/>
    </g>
</svg>