<?xml version="1.0" standalone="no"?>
<!DOCTYPE svg PUBLIC "-//W3C//DTD SVG 20010904//EN"
 "http://www.w3.org/TR/2001/REC-SVG-20010904/DTD/svg10.dtd">
<svg version="1.0" xmlns="http://www.w3.org/2000/svg"
 width="872.000000pt" height="872.000000pt" viewBox="0 0 872.000000 872.000000"
 preserveAspectRatio="xMidYMid meet">
<metadata>
Created by potrace 1.11, written by Peter Selinger 2001-2013
</metadata>
<g transform="translate(0.000000,872.000000) scale(0.100000,-0.100000)"
fill="#000000" stroke="none">
<path d="M5175 8098 c-60 -109 -79 -142 -132 -233 -22 -38 -53 -92 -68 -120
-15 -27 -42 -75 -61 -106 -19 -31 -34 -62 -34 -68 0 -6 -4 -11 -9 -11 -5 0
-11 -8 -14 -17 -4 -10 -22 -45 -42 -78 -20 -33 -41 -72 -46 -87 -6 -16 -15
-28 -20 -28 -5 0 -9 -4 -9 -9 0 -8 -235 -425 -299 -531 -11 -19 -26 -47 -32
-62 -6 -16 -15 -28 -20 -28 -5 0 -9 -9 -9 -19 0 -11 -4 -21 -8 -23 -20 -8
-120 -210 -188 -378 -41 -102 -79 -194 -83 -205 -5 -11 -27 -65 -50 -120 -22
-55 -77 -190 -121 -300 -45 -110 -83 -204 -84 -210 -1 -5 -12 -32 -24 -59 -12
-27 -29 -69 -37 -92 -8 -24 -19 -52 -24 -61 -14 -29 -29 -65 -51 -123 -11 -30
-25 -64 -30 -75 -5 -11 -19 -45 -30 -75 -12 -30 -26 -64 -31 -75 -4 -11 -24
-60 -44 -110 -20 -49 -42 -103 -50 -120 -7 -16 -11 -33 -9 -37 3 -4 1 -8 -4
-8 -6 0 -13 -12 -17 -27 -3 -15 -15 -46 -26 -70 -10 -23 -19 -45 -19 -48 0 -4
-6 -21 -14 -38 -21 -46 -49 -111 -50 -117 -2 -7 -26 -70 -41 -105 -7 -16 -48
-115 -89 -220 -42 -104 -83 -203 -90 -220 -8 -16 -17 -41 -21 -55 -4 -14 -16
-43 -26 -65 -31 -71 -149 -365 -149 -374 0 -8 157 -101 172 -101 4 0 8 -4 8
-10 0 -5 5 -10 11 -10 6 0 37 -15 68 -34 31 -19 72 -43 91 -53 19 -11 62 -35
95 -53 33 -18 77 -44 97 -57 21 -12 40 -23 42 -23 2 0 39 -20 80 -45 42 -25
79 -45 83 -45 4 0 14 -6 22 -14 20 -18 34 -8 80 59 19 28 38 52 41 55 3 3 55
70 115 150 60 80 111 147 114 150 4 3 46 59 96 125 49 66 101 134 115 151 33
42 41 53 186 244 69 91 131 172 139 182 7 9 46 60 87 114 40 54 79 105 86 114
8 8 39 49 69 90 63 85 96 128 118 151 8 9 15 21 15 27 0 5 3 12 8 14 4 2 23
23 42 48 19 25 37 47 40 50 3 3 10 12 15 22 6 9 53 72 105 140 52 67 117 153
145 189 27 36 64 83 80 105 17 21 36 45 43 52 6 7 12 17 12 20 0 4 10 18 23
32 12 14 40 50 62 80 22 30 46 62 54 70 7 8 53 69 103 135 49 66 98 130 109
143 10 12 19 24 19 25 0 4 166 296 180 317 5 8 14 24 20 35 5 11 25 47 45 80
19 33 40 72 46 88 6 15 15 27 20 27 5 0 9 6 9 13 0 7 16 36 35 65 19 29 35 56
36 60 0 4 18 36 39 72 20 36 48 85 62 110 14 25 37 65 52 90 14 25 40 70 56
100 17 30 44 78 61 105 16 28 34 59 39 70 6 11 14 27 20 35 25 38 240 421 240
428 0 4 -17 16 -37 27 -21 11 -54 29 -73 41 -19 11 -60 34 -90 51 -30 17 -104
59 -165 93 -60 35 -130 74 -155 88 -25 14 -58 33 -75 43 -16 10 -70 41 -120
69 -125 70 -172 97 -228 131 -26 16 -49 29 -51 29 -2 0 -60 32 -128 72 -67 39
-143 82 -168 95 -25 13 -54 29 -65 36 -61 38 -105 63 -169 97 l-71 38 -50 -90z"/>
<path d="M2590 2743 c-14 -2 -59 -11 -100 -20 -41 -9 -79 -17 -85 -19 -35 -7
-173 -76 -240 -120 -113 -74 -243 -204 -297 -298 -35 -59 -96 -186 -91 -186 3
0 0 -6 -6 -14 -7 -8 -13 -22 -15 -33 -2 -10 -10 -38 -17 -63 -50 -176 -43
-388 17 -567 46 -136 109 -237 215 -342 99 -99 117 -113 224 -165 134 -66 226
-88 372 -91 167 -4 309 28 438 97 27 15 66 35 85 45 19 9 40 22 45 28 6 6 26
23 45 37 46 34 122 109 157 155 15 21 32 41 37 44 22 16 120 205 142 274 74
231 72 451 -6 665 -123 339 -436 565 -793 574 -56 1 -113 1 -127 -1z"/>
</g>
</svg>
